<mxfile host="app.diagrams.net" agent="Mozilla/5.0 (Windows NT 10.0; Win64; x64) AppleWebKit/537.36 (KHTML, like Gecko) Chrome/136.0.0.0 Safari/537.36" version="27.1.1">
  <diagram name="Page-1" id="SW9k_M3Dm4dDnbWkCkOJ">
    <mxGraphModel dx="1042" dy="527" grid="1" gridSize="10" guides="1" tooltips="1" connect="1" arrows="1" fold="1" page="1" pageScale="1" pageWidth="850" pageHeight="1100" background="#ffffff" math="0" shadow="0">
      <root>
        <mxCell id="0" />
        <mxCell id="1" parent="0" />
        <mxCell id="bYAZez9IBzpvYMG7nWXx-25" style="edgeStyle=orthogonalEdgeStyle;rounded=0;orthogonalLoop=1;jettySize=auto;html=1;" edge="1" parent="1" source="bYAZez9IBzpvYMG7nWXx-1">
          <mxGeometry relative="1" as="geometry">
            <mxPoint x="130" y="160" as="targetPoint" />
          </mxGeometry>
        </mxCell>
        <mxCell id="bYAZez9IBzpvYMG7nWXx-28" style="edgeStyle=orthogonalEdgeStyle;rounded=0;orthogonalLoop=1;jettySize=auto;html=1;entryX=0;entryY=0.5;entryDx=0;entryDy=0;" edge="1" parent="1" source="bYAZez9IBzpvYMG7nWXx-1" target="bYAZez9IBzpvYMG7nWXx-7">
          <mxGeometry relative="1" as="geometry">
            <Array as="points">
              <mxPoint x="390" y="80" />
              <mxPoint x="390" y="80" />
            </Array>
          </mxGeometry>
        </mxCell>
        <mxCell id="bYAZez9IBzpvYMG7nWXx-1" value="Student" style="rounded=0;whiteSpace=wrap;html=1;" vertex="1" parent="1">
          <mxGeometry x="70" y="50" width="120" height="60" as="geometry" />
        </mxCell>
        <mxCell id="bYAZez9IBzpvYMG7nWXx-2" value="" style="swimlane;whiteSpace=wrap;html=1;" vertex="1" parent="1">
          <mxGeometry x="70" y="170" width="130" height="90" as="geometry" />
        </mxCell>
        <mxCell id="bYAZez9IBzpvYMG7nWXx-24" value="begingDate&amp;nbsp;&lt;div&gt;numberOfHrs&lt;/div&gt;" style="text;html=1;align=center;verticalAlign=middle;resizable=0;points=[];autosize=1;strokeColor=none;fillColor=none;" vertex="1" parent="bYAZez9IBzpvYMG7nWXx-2">
          <mxGeometry x="10" y="35" width="90" height="40" as="geometry" />
        </mxCell>
        <mxCell id="bYAZez9IBzpvYMG7nWXx-3" value="registration&amp;nbsp;" style="swimlane;fontStyle=0;childLayout=stackLayout;horizontal=1;startSize=30;horizontalStack=0;resizeParent=1;resizeParentMax=0;resizeLast=0;collapsible=1;marginBottom=0;whiteSpace=wrap;html=1;" vertex="1" parent="1">
          <mxGeometry x="340" y="155" width="140" height="90" as="geometry" />
        </mxCell>
        <mxCell id="bYAZez9IBzpvYMG7nWXx-4" value="term&amp;nbsp;&lt;div&gt;grade&amp;nbsp;&lt;/div&gt;" style="text;strokeColor=none;fillColor=none;align=left;verticalAlign=middle;spacingLeft=4;spacingRight=4;overflow=hidden;points=[[0,0.5],[1,0.5]];portConstraint=eastwest;rotatable=0;whiteSpace=wrap;html=1;" vertex="1" parent="bYAZez9IBzpvYMG7nWXx-3">
          <mxGeometry y="30" width="140" height="30" as="geometry" />
        </mxCell>
        <mxCell id="bYAZez9IBzpvYMG7nWXx-5" value="chechEligbility()" style="text;strokeColor=none;fillColor=none;align=left;verticalAlign=middle;spacingLeft=4;spacingRight=4;overflow=hidden;points=[[0,0.5],[1,0.5]];portConstraint=eastwest;rotatable=0;whiteSpace=wrap;html=1;" vertex="1" parent="bYAZez9IBzpvYMG7nWXx-3">
          <mxGeometry y="60" width="140" height="30" as="geometry" />
        </mxCell>
        <mxCell id="bYAZez9IBzpvYMG7nWXx-7" value="course" style="rounded=0;whiteSpace=wrap;html=1;" vertex="1" parent="1">
          <mxGeometry x="580" y="50" width="120" height="60" as="geometry" />
        </mxCell>
        <mxCell id="bYAZez9IBzpvYMG7nWXx-8" value="computer account" style="swimlane;fontStyle=0;childLayout=stackLayout;horizontal=1;startSize=30;horizontalStack=0;resizeParent=1;resizeParentMax=0;resizeLast=0;collapsible=1;marginBottom=0;whiteSpace=wrap;html=1;" vertex="1" parent="1">
          <mxGeometry x="580" y="155" width="140" height="90" as="geometry" />
        </mxCell>
        <mxCell id="bYAZez9IBzpvYMG7nWXx-9" value="accid&amp;nbsp;&lt;div&gt;password&lt;/div&gt;" style="text;strokeColor=none;fillColor=none;align=left;verticalAlign=middle;spacingLeft=4;spacingRight=4;overflow=hidden;points=[[0,0.5],[1,0.5]];portConstraint=eastwest;rotatable=0;whiteSpace=wrap;html=1;" vertex="1" parent="bYAZez9IBzpvYMG7nWXx-8">
          <mxGeometry y="30" width="140" height="30" as="geometry" />
        </mxCell>
        <mxCell id="bYAZez9IBzpvYMG7nWXx-10" value="serverspace&amp;nbsp;" style="text;strokeColor=none;fillColor=none;align=left;verticalAlign=middle;spacingLeft=4;spacingRight=4;overflow=hidden;points=[[0,0.5],[1,0.5]];portConstraint=eastwest;rotatable=0;whiteSpace=wrap;html=1;" vertex="1" parent="bYAZez9IBzpvYMG7nWXx-8">
          <mxGeometry y="60" width="140" height="30" as="geometry" />
        </mxCell>
        <mxCell id="bYAZez9IBzpvYMG7nWXx-32" style="edgeStyle=orthogonalEdgeStyle;rounded=0;orthogonalLoop=1;jettySize=auto;html=1;" edge="1" parent="1" source="bYAZez9IBzpvYMG7nWXx-12">
          <mxGeometry relative="1" as="geometry">
            <mxPoint x="230" y="560" as="targetPoint" />
          </mxGeometry>
        </mxCell>
        <mxCell id="bYAZez9IBzpvYMG7nWXx-12" value="registration" style="swimlane;whiteSpace=wrap;html=1;" vertex="1" parent="1">
          <mxGeometry x="110" y="360" width="200" height="90" as="geometry" />
        </mxCell>
        <mxCell id="bYAZez9IBzpvYMG7nWXx-23" value="term=fall2025&lt;div&gt;grade =w&lt;/div&gt;" style="text;html=1;align=center;verticalAlign=middle;resizable=0;points=[];autosize=1;strokeColor=none;fillColor=none;" vertex="1" parent="bYAZez9IBzpvYMG7nWXx-12">
          <mxGeometry x="35" y="33" width="90" height="40" as="geometry" />
        </mxCell>
        <mxCell id="bYAZez9IBzpvYMG7nWXx-30" style="edgeStyle=orthogonalEdgeStyle;rounded=0;orthogonalLoop=1;jettySize=auto;html=1;entryX=0;entryY=0.5;entryDx=0;entryDy=0;" edge="1" parent="1" source="bYAZez9IBzpvYMG7nWXx-13" target="bYAZez9IBzpvYMG7nWXx-14">
          <mxGeometry relative="1" as="geometry" />
        </mxCell>
        <mxCell id="bYAZez9IBzpvYMG7nWXx-31" style="edgeStyle=orthogonalEdgeStyle;rounded=0;orthogonalLoop=1;jettySize=auto;html=1;entryX=0;entryY=0.75;entryDx=0;entryDy=0;" edge="1" parent="1" source="bYAZez9IBzpvYMG7nWXx-13" target="bYAZez9IBzpvYMG7nWXx-15">
          <mxGeometry relative="1" as="geometry" />
        </mxCell>
        <mxCell id="bYAZez9IBzpvYMG7nWXx-13" value="mary jones" style="rounded=0;whiteSpace=wrap;html=1;" vertex="1" parent="1">
          <mxGeometry x="10" y="530" width="120" height="60" as="geometry" />
        </mxCell>
        <mxCell id="bYAZez9IBzpvYMG7nWXx-14" value="registration" style="rounded=0;whiteSpace=wrap;html=1;" vertex="1" parent="1">
          <mxGeometry x="520" y="470" width="120" height="60" as="geometry" />
        </mxCell>
        <mxCell id="bYAZez9IBzpvYMG7nWXx-15" value="password" style="rounded=0;whiteSpace=wrap;html=1;" vertex="1" parent="1">
          <mxGeometry x="520" y="580" width="120" height="60" as="geometry" />
        </mxCell>
        <mxCell id="bYAZez9IBzpvYMG7nWXx-33" style="edgeStyle=orthogonalEdgeStyle;rounded=0;orthogonalLoop=1;jettySize=auto;html=1;" edge="1" parent="1" source="bYAZez9IBzpvYMG7nWXx-20">
          <mxGeometry relative="1" as="geometry">
            <mxPoint x="230" y="570" as="targetPoint" />
          </mxGeometry>
        </mxCell>
        <mxCell id="bYAZez9IBzpvYMG7nWXx-20" value="Vertical Container" style="swimlane;whiteSpace=wrap;html=1;" vertex="1" parent="1">
          <mxGeometry x="170" y="700" width="200" height="90" as="geometry" />
        </mxCell>
        <mxCell id="bYAZez9IBzpvYMG7nWXx-22" value="term = fall2025" style="text;html=1;align=center;verticalAlign=middle;resizable=0;points=[];autosize=1;strokeColor=none;fillColor=none;" vertex="1" parent="bYAZez9IBzpvYMG7nWXx-20">
          <mxGeometry x="20" y="40" width="100" height="30" as="geometry" />
        </mxCell>
        <mxCell id="bYAZez9IBzpvYMG7nWXx-29" style="edgeStyle=orthogonalEdgeStyle;rounded=0;orthogonalLoop=1;jettySize=auto;html=1;entryX=0;entryY=0.5;entryDx=0;entryDy=0;" edge="1" parent="1" source="bYAZez9IBzpvYMG7nWXx-4" target="bYAZez9IBzpvYMG7nWXx-9">
          <mxGeometry relative="1" as="geometry" />
        </mxCell>
        <mxCell id="bYAZez9IBzpvYMG7nWXx-35" value="computer account" style="swimlane;fontStyle=0;childLayout=stackLayout;horizontal=1;startSize=30;horizontalStack=0;resizeParent=1;resizeParentMax=0;resizeLast=0;collapsible=1;marginBottom=0;whiteSpace=wrap;html=1;" vertex="1" parent="1">
          <mxGeometry x="560" y="730" width="140" height="90" as="geometry" />
        </mxCell>
        <mxCell id="bYAZez9IBzpvYMG7nWXx-36" value="accid&amp;nbsp;&lt;div&gt;password&lt;/div&gt;" style="text;strokeColor=none;fillColor=none;align=left;verticalAlign=middle;spacingLeft=4;spacingRight=4;overflow=hidden;points=[[0,0.5],[1,0.5]];portConstraint=eastwest;rotatable=0;whiteSpace=wrap;html=1;" vertex="1" parent="bYAZez9IBzpvYMG7nWXx-35">
          <mxGeometry y="30" width="140" height="30" as="geometry" />
        </mxCell>
        <mxCell id="bYAZez9IBzpvYMG7nWXx-37" value="serverspace&amp;nbsp;" style="text;strokeColor=none;fillColor=none;align=left;verticalAlign=middle;spacingLeft=4;spacingRight=4;overflow=hidden;points=[[0,0.5],[1,0.5]];portConstraint=eastwest;rotatable=0;whiteSpace=wrap;html=1;" vertex="1" parent="bYAZez9IBzpvYMG7nWXx-35">
          <mxGeometry y="60" width="140" height="30" as="geometry" />
        </mxCell>
        <mxCell id="bYAZez9IBzpvYMG7nWXx-38" style="edgeStyle=orthogonalEdgeStyle;rounded=0;orthogonalLoop=1;jettySize=auto;html=1;entryX=-0.009;entryY=0.84;entryDx=0;entryDy=0;entryPerimeter=0;" edge="1" parent="1" source="bYAZez9IBzpvYMG7nWXx-20" target="bYAZez9IBzpvYMG7nWXx-36">
          <mxGeometry relative="1" as="geometry" />
        </mxCell>
      </root>
    </mxGraphModel>
  </diagram>
</mxfile>
